<svg xmlns="http://www.w3.org/2000/svg" width="143" height="140" viewBox="0 0 143 140">
  <g id="undraw_No_data_re_kwbl" transform="translate(-0.001 -0.004)">
    <path id="Path_16498" data-name="Path 16498" d="M397.71,187.354H359.063a3.326,3.326,0,0,0-3.322,3.322v85.893l-.443.135-9.481,2.9a1.773,1.773,0,0,1-2.212-1.176l-28.2-92.116a1.772,1.772,0,0,1,1.176-2.212l14.61-4.473,42.354-12.964,14.61-4.474a1.769,1.769,0,0,1,2.212,1.174l7.208,23.546Z" transform="translate(-306.657 -155.865)" fill="#f2f2f2"/>
    <path id="Path_16499" data-name="Path 16499" d="M375.668,164.959l-8.688-28.378a3.763,3.763,0,0,0-4.7-2.5l-20.54,6.287-42.352,12.966-20.54,6.289a3.768,3.768,0,0,0-2.5,4.7l29.693,96.984a3.771,3.771,0,0,0,3.6,2.664,3.718,3.718,0,0,0,1.1-.166l14.08-4.31.443-.137V258.9l-.443.135-14.211,4.352a3.325,3.325,0,0,1-4.148-2.2L276.773,164.2a3.317,3.317,0,0,1,2.2-4.148l20.54-6.289L341.869,140.8l20.54-6.289a3.319,3.319,0,0,1,4.148,2.2l8.648,28.249.137.443h.461Z" transform="translate(-276.182 -133.913)" fill="#3f3d56"/>
    <path id="Path_16500" data-name="Path 16500" d="M381.822,173.029a2,2,0,0,1-1.907-1.41l-2.853-9.317a1.993,1.993,0,0,1,1.322-2.489l38.963-11.929a2,2,0,0,1,2.489,1.322l2.853,9.317a2,2,0,0,1-1.322,2.489L382.4,172.942A1.989,1.989,0,0,1,381.822,173.029Z" transform="translate(-354.749 -144.719)" fill="#3e67bb"/>
    <circle id="Ellipse_97" data-name="Ellipse 97" cx="4.429" cy="4.429" r="4.429" transform="translate(37.564 1.1)" fill="#3e67bb"/>
    <circle id="Ellipse_98" data-name="Ellipse 98" cx="2.805" cy="2.805" r="2.805" transform="translate(39.186 2.725)" fill="#fff"/>
    <path id="Path_16501" data-name="Path 16501" d="M609.054,387.543H534.2a1.885,1.885,0,0,1-1.882-1.882V295.969a1.884,1.884,0,0,1,1.882-1.882h74.853a1.884,1.884,0,0,1,1.882,1.882V385.66A1.885,1.885,0,0,1,609.054,387.543Z" transform="translate(-476.018 -258.612)" fill="#e6e6e6"/>
    <path id="Path_16502" data-name="Path 16502" d="M546.2,274.087H499.583a3.77,3.77,0,0,0-3.765,3.765v90.311l.443-.135V277.852a3.326,3.326,0,0,1,3.322-3.322h46.754Zm40.638,0H499.583a3.77,3.77,0,0,0-3.765,3.765V379.28a3.77,3.77,0,0,0,3.765,3.765h87.255a3.77,3.77,0,0,0,3.765-3.765V277.852A3.77,3.77,0,0,0,586.838,274.087ZM590.16,379.28a3.326,3.326,0,0,1-3.322,3.322H499.583a3.326,3.326,0,0,1-3.322-3.322V277.852a3.326,3.326,0,0,1,3.322-3.322h87.255a3.326,3.326,0,0,1,3.322,3.322Z" transform="translate(-447.602 -243.041)" fill="#3f3d56"/>
    <path id="Path_16503" data-name="Path 16503" d="M651.56,269.818H610.811a2,2,0,0,1-1.993-1.993V258.08a2,2,0,0,1,1.993-1.993H651.56a2,2,0,0,1,1.993,1.993v9.744A2,2,0,0,1,651.56,269.818Z" transform="translate(-535.469 -229.028)" fill="#3e67bb"/>
    <circle id="Ellipse_99" data-name="Ellipse 99" cx="4.429" cy="4.429" r="4.429" transform="translate(91.315 18.865)" fill="#3e67bb"/>
    <circle id="Ellipse_100" data-name="Ellipse 100" cx="2.698" cy="2.698" r="2.698" transform="translate(93.048 20.597)" fill="#fff"/>
    <text id="لاشئ" transform="translate(97.001 66.004)" fill="#8d8e99" font-size="11" font-family="Tajawal-Regular, Tajawal" letter-spacing="-0.02em"><tspan x="-12.166" y="0">لاشئ</tspan></text>
    <rect id="Rectangle_279" data-name="Rectangle 279" width="66" height="1" rx="0.5" transform="translate(64.001 78.004)" fill="#b7b7b7"/>
    <rect id="Rectangle_280" data-name="Rectangle 280" width="66" height="1" rx="0.5" transform="translate(64.001 81.004)" fill="#b7b7b7"/>
    <rect id="Rectangle_281" data-name="Rectangle 281" width="66" height="1" rx="0.5" transform="translate(64.001 84.004)" fill="#b7b7b7"/>
    <rect id="Rectangle_282" data-name="Rectangle 282" width="43" height="1" rx="0.5" transform="translate(76.001 87.004)" fill="#b7b7b7"/>
  </g>
</svg>
